<svg width="128" height="118" viewBox="0 0 128 118" fill="none" xmlns="http://www.w3.org/2000/svg">
<path d="M0.756407 26.6368C6.73105 19.3647 14.0795 13.3406 22.3823 8.90846C30.685 4.47632 39.7795 1.72292 49.1463 0.805484C58.5132 -0.111955 67.969 0.824527 76.9739 3.56147C85.9789 6.2984 94.3565 10.7822 101.629 16.7568C108.901 22.7315 114.925 30.0799 119.357 38.3827C123.789 46.6854 126.542 55.7799 127.46 65.1467C128.377 74.5136 127.441 83.9694 124.704 92.9743C121.967 101.979 117.483 110.357 111.509 117.629L56.1325 72.1329L0.756407 26.6368Z" fill="url(#paint0_linear_40_211)"/>
<defs>
<linearGradient id="paint0_linear_40_211" x1="124.789" y1="108.114" x2="-2.75116" y2="-28.4645" gradientUnits="userSpaceOnUse">
<stop stop-color="#6AEA5C"/>
<stop offset="0.400448" stop-color="#FD7566"/>
<stop offset="1" stop-color="#EF8F00"/>
</linearGradient>
</defs>
</svg>
