<svg width="127" height="119" viewBox="0 0 127 119" fill="none" xmlns="http://www.w3.org/2000/svg">
<path d="M126.61 92.8628C120.555 100.067 113.139 106.009 104.787 110.347C96.4352 114.686 87.3105 117.337 77.9339 118.15C68.5574 118.962 59.1126 117.92 50.139 115.082C41.1653 112.244 32.8384 107.667 25.6338 101.611C18.4292 95.5549 12.4879 88.1393 8.14916 79.7874C3.81042 71.4354 1.1592 62.3107 0.346888 52.9341C-0.465437 43.5576 0.577046 34.1128 3.41481 25.1392C6.25258 16.1655 10.83 7.83865 16.8859 0.634032L71.7482 46.7484L126.61 92.8628Z" fill="url(#paint0_linear_40_210)"/>
<defs>
<linearGradient id="paint0_linear_40_210" x1="3.49982" y1="10" x2="129.5" y2="148" gradientUnits="userSpaceOnUse">
<stop stop-color="#6AEA5C"/>
<stop offset="0.400448" stop-color="#FD7566"/>
<stop offset="1" stop-color="#EF8F00"/>
</linearGradient>
</defs>
</svg>
