<svg width="150" height="32" viewBox="0 0 150 32" fill="none" xmlns="http://www.w3.org/2000/svg">
<path d="M21.1992 26.7812L25.1445 26.4102C26.3034 26.4102 26.8828 26.7227 26.8828 27.3477C26.8828 27.9596 26.5052 28.4935 25.75 28.9492C23.901 30.056 21.9219 30.8047 19.8125 31.1953C17.7031 31.5859 15.6458 31.7812 13.6406 31.7812C11.6484 31.7812 10.2227 31.7422 9.36328 31.6641C8.51693 31.599 7.67057 31.4557 6.82422 31.2344C5.99089 31.013 5.30729 30.7135 4.77344 30.3359C3.61458 29.5026 3.03516 28.2201 3.03516 26.4883C3.03516 23.4805 4.85156 19.6979 8.48438 15.1406C11.2318 11.7031 13.5625 9.69792 15.4766 9.125C16.4792 8.82552 17.6445 8.67578 18.9727 8.67578C20.3138 8.67578 20.9844 9.18359 20.9844 10.1992C20.9844 10.5378 20.8867 10.9414 20.6914 11.4102C19.9492 12.9336 19.2982 14.737 18.7383 16.8203C18.1784 18.8906 17.8984 20.7526 17.8984 22.4062C17.8984 25.3229 18.9987 26.7812 21.1992 26.7812ZM1.375 10.707C0.710938 10.707 0.378906 10.3229 0.378906 9.55469C0.378906 8.70833 0.632812 7.54948 1.14062 6.07812C2.13021 3.27865 3.19141 1.72266 4.32422 1.41016C4.63672 1.29297 5.58073 1.23438 7.15625 1.23438L20.3594 1.54688C21.0104 1.54688 22.9049 1.35156 26.043 0.960938C29.194 0.570312 30.8477 0.375 31.0039 0.375C32.6836 0.375 33.5234 0.947917 33.5234 2.09375C33.5234 2.60156 33.3411 3.40885 32.9766 4.51562C32.625 5.60938 32.1562 6.64453 31.5703 7.62109C30.9844 8.59766 30.444 9.08594 29.9492 9.08594C29.6497 9.08594 28.9727 8.84505 27.918 8.36328C24.7279 6.90495 22.1562 6.17578 20.2031 6.17578C18.25 6.17578 15.9909 6.36458 13.4258 6.74219C10.8607 7.11979 8.95312 7.56901 7.70312 8.08984C6.45312 8.59766 5.35938 9.06641 4.42188 9.49609C2.67708 10.3034 1.66146 10.707 1.375 10.707Z" fill="#F9F9F9"/>
<path d="M45.7305 26.8203C48.1784 26.8203 50.2227 24.9453 51.8633 21.1953C52.6185 19.4766 52.9961 18.0833 52.9961 17.0156C52.9961 15.9479 52.8138 15.2122 52.4492 14.8086C52.0977 14.4049 51.3945 14.2031 50.3398 14.2031C49.2982 14.2031 48.1654 14.6914 46.9414 15.668C45.7305 16.6315 44.7539 17.849 44.0117 19.3203C43.2695 20.7917 42.8984 22.1198 42.8984 23.3047C42.8984 24.4766 43.1589 25.3555 43.6797 25.9414C44.2005 26.5273 44.8841 26.8203 45.7305 26.8203ZM55.8867 10.2773L64.832 10.6875C65.1706 10.6875 65.4245 10.7917 65.5938 11C65.763 11.1953 65.8477 11.4167 65.8477 11.6641C65.8477 12.6146 65.4505 14.1315 64.6562 16.2148C63.875 18.2852 63.0872 20.3424 62.293 22.3867C61.5117 24.418 61.1211 25.7656 61.1211 26.4297C61.1211 27.0807 61.2188 27.4974 61.4141 27.6797C61.6224 27.862 62.013 27.9531 62.5859 27.9531C63.1589 27.9531 64.2005 27.6797 65.7109 27.1328C67.2344 26.5729 68.263 26.1497 68.7969 25.8633C69.3438 25.5768 69.7604 25.4336 70.0469 25.4336C70.5547 25.4336 70.8086 25.6615 70.8086 26.1172C70.8086 27.0807 68.8555 28.3438 64.9492 29.9062C63.6341 30.4401 62.0456 30.8828 60.1836 31.2344C58.3346 31.599 56.4531 31.7812 54.5391 31.7812C51.349 31.7812 49.4284 30.7656 48.7773 28.7344C46.7461 30.7656 44.0117 31.7812 40.5742 31.7812C38.2174 31.7812 36.2253 31.2148 34.5977 30.082C32.8268 28.8451 31.9414 26.8984 31.9414 24.2422C31.9414 21.4427 32.7682 18.8646 34.4219 16.5078C36.2318 13.8906 38.6536 12.0872 41.6875 11.0977C43.3672 10.5508 45.1706 10.2773 47.0977 10.2773C50.0534 10.2773 52.3516 11.0065 53.9922 12.4648C54.0052 12.3867 54.0117 12.263 54.0117 12.0938L53.9922 11.2539C53.9922 10.6029 54.6237 10.2773 55.8867 10.2773Z" fill="#F9F9F9"/>
<path d="M81.2188 31.7617C80.8932 31.7747 80.4115 31.7812 79.7734 31.7812C76.7786 31.7812 73.9531 31.5013 71.2969 30.9414C68.6536 30.3815 67.0911 29.7305 66.6094 28.9883C66.4531 28.7539 66.375 28.4609 66.375 28.1094C66.375 27.7578 66.7917 27.1979 67.625 26.4297C68.4583 25.6484 69.0312 25.2578 69.3438 25.2578C69.6562 25.2578 69.9753 25.375 70.3008 25.6094C70.6393 25.8307 71.0104 26.1042 71.4141 26.4297C71.8177 26.7552 72.2669 27.0807 72.7617 27.4062C73.9466 28.1875 75.3724 28.5781 77.0391 28.5781C77.7031 28.5781 78.237 28.4089 78.6406 28.0703C79.0573 27.7318 79.2656 27.3086 79.2656 26.8008C79.2656 26.2799 79.0898 25.8307 78.7383 25.4531C78.3997 25.0755 77.9505 24.75 77.3906 24.4766C76.8438 24.1901 76.2383 23.9102 75.5742 23.6367C74.9102 23.3503 74.2396 23.0443 73.5625 22.7188C72.8984 22.3802 72.2865 22.0156 71.7266 21.625C70.4896 20.7526 69.8711 19.6719 69.8711 18.3828C69.8711 17.0807 70.2617 15.9544 71.043 15.0039C71.8372 14.0534 72.8333 13.2917 74.0312 12.7188C75.2292 12.1458 76.5833 11.6641 78.0938 11.2734C80.75 10.6094 83.2565 10.2773 85.6133 10.2773C87.9831 10.2773 90.1836 10.401 92.2148 10.6484C94.2591 10.8828 95.6654 11.2344 96.4336 11.7031C96.6419 11.8203 96.7461 12.1328 96.7461 12.6406C96.7461 13.1354 96.5703 13.8516 96.2188 14.7891C95.8672 15.7135 95.418 16.5729 94.8711 17.3672C94.3372 18.1484 93.8555 18.5391 93.4258 18.5391C93.2565 18.5391 93.1133 18.4674 92.9961 18.3242C91.7591 16.8398 90.5547 15.7005 89.3828 14.9062C88.224 14.099 86.9609 13.6953 85.5938 13.6953C84.5521 13.6953 83.8034 13.9102 83.3477 14.3398C82.9049 14.7565 82.6836 15.1927 82.6836 15.6484C82.6836 16.1042 82.931 16.5404 83.4258 16.957C83.9336 17.3737 84.5586 17.7513 85.3008 18.0898C86.056 18.4284 86.8698 18.8255 87.7422 19.2812C88.6276 19.724 89.4414 20.1797 90.1836 20.6484C90.9388 21.1042 91.5638 21.6836 92.0586 22.3867C92.5664 23.0768 92.8203 23.9492 92.8203 25.0039C92.8203 26.0586 92.4362 27.0872 91.668 28.0898C94.8971 27.4388 97.4232 26.638 99.2461 25.6875C99.5586 25.5182 99.8255 25.4336 100.047 25.4336C100.542 25.4336 100.789 25.681 100.789 26.1758C100.789 26.5924 100.535 26.9766 100.027 27.3281C99.5195 27.6667 98.6797 28.0833 97.5078 28.5781C96.3359 29.0599 94.9427 29.5482 93.3281 30.043C89.5651 31.1888 85.5286 31.7617 81.2188 31.7617Z" fill="#F9F9F9"/>
<path d="M121.688 10.8438L129.324 10.6289C129.663 10.6289 129.917 10.7331 130.086 10.9414C130.255 11.1367 130.34 11.3581 130.34 11.6055C130.34 12.543 130.027 13.4544 129.402 14.3398C128.79 15.2122 128.003 15.9805 127.039 16.6445C126.076 17.3086 124.949 17.9271 123.66 18.5C121.342 19.5286 118.829 20.3229 116.121 20.8828C117.97 20.6094 119.585 20.4727 120.965 20.4727C124.272 20.4727 125.926 21.5078 125.926 23.5781C125.926 23.9036 125.841 24.3919 125.672 25.043C125.503 25.681 125.418 26.1953 125.418 26.5859C125.418 27.4193 125.835 27.8359 126.668 27.8359C127.28 27.8359 128.159 27.6146 129.305 27.1719C130.464 26.7161 131.355 26.3125 131.98 25.9609C132.605 25.6094 133.022 25.4336 133.23 25.4336C133.452 25.4336 133.647 25.5052 133.816 25.6484C133.986 25.7786 134.07 26.0195 134.07 26.3711C134.07 26.7096 133.79 27.0807 133.23 27.4844C131.329 28.8255 129.051 29.8802 126.395 30.6484C123.738 31.4036 121.355 31.7812 119.246 31.7812C117.15 31.7812 115.73 31.5664 114.988 31.1367C114.246 30.7201 113.875 30.0234 113.875 29.0469C113.875 28.5521 114.012 27.7969 114.285 26.7812C114.559 25.7526 114.695 24.9388 114.695 24.3398C114.695 22.6081 113.66 21.651 111.59 21.4688C110.027 25.7396 109.194 28.7344 109.09 30.4531C109.064 30.9349 108.719 31.1758 108.055 31.1758L97.9961 31.3906C97.8529 31.3906 97.6901 31.2995 97.5078 31.1172C97.3385 30.9479 97.2539 30.7331 97.2539 30.4727C97.2539 30.2122 97.6706 28.9036 98.5039 26.5469C99.3503 24.1901 100.275 21.6315 101.277 18.8711C102.293 16.1107 103.217 13.2396 104.051 10.2578C104.897 7.27604 105.32 5.05599 105.32 3.59766L105.301 3.05078C105.301 2.39974 105.932 2.07422 107.195 2.07422L116.141 2.01562C116.44 2.01562 116.681 2.11328 116.863 2.30859C117.059 2.49089 117.156 2.69271 117.156 2.91406C117.156 4.03385 116.596 6.41016 115.477 10.043C114.357 13.6758 113.289 16.8659 112.273 19.6133C114.617 19.0013 116.46 18.0378 117.801 16.7227C119.142 15.4076 119.812 14.0208 119.812 12.5625L119.793 11.8203C119.793 11.1693 120.424 10.8438 121.688 10.8438Z" fill="#F9F9F9"/>
<circle cx="145" cy="26" r="5" fill="#0CCE84"/>
</svg>
